# xmcd
#
# Track frame offsets:
#	150
#	16335
#	30908
#	45991
#	62013
#	76405
#	90719
#	110089
#	131125
#	144419
#	161088
#	176614
#	194080
#	211329
#
# Disc length: 3025 seconds
#
# Revision: 0
# Processed by: cddbd v1.5.2PL0 Copyright (c) Steve Scherf et al.
# Submitted via: EasyCDDAExtractor 12.0.0.1
#
DISCID=be0bcf0e
DTITLE=Various Artist - Best of Both Worlds Concert
DYEAR=2008
DGENRE=
TTITLE0=Hannah Montana - Rock Star
TTITLE1=Hannah Montana - Life's What You Make It
TTITLE2=Hannah Montana - Just Like You
TTITLE3=Hannah Montana - Nobody's Perfect
TTITLE4=Hannah Montana - Pumpin' Up The Party
TTITLE5=Hannah Montana - I Got Nerve
TTITLE6=Hannah Montana - We Got the Party (feat. Jonas Brothers)
TTITLE7=Miley Cyrus - Start All Over
TTITLE8=Miley Cyrus - Good and Broken
TTITLE9=Miley Cyrus - See You Again
TTITLE10=Miley Cyrus - Let's Dance
TTITLE11=Miley Cyrus - East Northumberland High
TTITLE12=Miley Cyrus - G.N.O. (Girl's Night Out)
TTITLE13=Miley Cyrus - Best of Both Worlds (feat. Hannah Montana)
EXTD=
EXTT0=
EXTT1=
EXTT2=
EXTT3=
EXTT4=
EXTT5=
EXTT6=
EXTT7=
EXTT8=
EXTT9=
EXTT10=
EXTT11=
EXTT12=
EXTT13=
PLAYORDER=
